HIERARCHY
ROOT Hips
{
	OFFSET 0.000000 0.000000 0.000000
	CHANNELS 6 Xposition Yposition Zposition Zrotation Yrotation Xrotation 
	JOINT LHipJoint
	{
		OFFSET 0.000000 0.000000 0.000000
		CHANNELS 3 Zrotation Yrotation Xrotation
		JOINT LeftUpLeg
		{
			OFFSET 8.178360 -10.767780 5.035740
			CHANNELS 3 Zrotation Yrotation Xrotation
			JOINT LeftLeg
			{
				OFFSET 14.688660 -40.356780 0.000000
				CHANNELS 3 Zrotation Yrotation Xrotation
				JOINT LeftFoot
				{
					OFFSET 15.373200 -42.237540 0.000000
					CHANNELS 3 Zrotation Yrotation Xrotation
					JOINT LeftToeBase
					{
						OFFSET 0.945840 -2.598660 13.935300
						CHANNELS 3 Zrotation Yrotation Xrotation
						End Site
						{
							OFFSET 0.000000 0.000000 0.000000
						}
					}
				}
			}
		}
	}
	JOINT RHipJoint
	{
		OFFSET 0.000000 0.000000 0.000000
		CHANNELS 3 Zrotation Yrotation Xrotation
		JOINT RightUpLeg
		{
			OFFSET -7.833120 -10.767780 5.035740
			CHANNELS 3 Zrotation Yrotation Xrotation
			JOINT RightLeg
			{
				OFFSET -15.255180 -41.913300 0.000000
				CHANNELS 3 Zrotation Yrotation Xrotation
				JOINT RightFoot
				{
					OFFSET -15.409560 -42.337380 0.000000
					CHANNELS 3 Zrotation Yrotation Xrotation
					JOINT RightToeBase
					{
						OFFSET -0.988380 -2.715540 14.178900
						CHANNELS 3 Zrotation Yrotation Xrotation
						End Site
						{
							OFFSET 0.000000 0.000000 0.000000
						}
					}
				}
			}
		}
	}
	JOINT LowerBack
	{
		OFFSET 0.000000 0.000000 0.000000
		CHANNELS 3 Zrotation Yrotation Xrotation
		JOINT Spine
		{
			OFFSET 0.169620 12.213540 -1.160280
			CHANNELS 3 Zrotation Yrotation Xrotation
			JOINT Spine1
			{
				OFFSET 0.340320 12.293100 -0.256500
				CHANNELS 3 Zrotation Yrotation Xrotation
				JOINT Neck
				{
					OFFSET 0.000000 0.000000 0.000000
					CHANNELS 3 Zrotation Yrotation Xrotation
					JOINT Neck1
					{
						OFFSET -0.325020 10.477440 1.032120
						CHANNELS 3 Zrotation Yrotation Xrotation
						JOINT Head
						{
							OFFSET 0.624420 10.568160 -0.743820
							CHANNELS 3 Zrotation Yrotation Xrotation
							End Site
							{
								OFFSET 0.000000 0.000000 0.000000
							}
						}
					}
				}
				JOINT LeftShoulder
				{
					OFFSET 0.000000 0.000000 0.000000
					CHANNELS 3 Zrotation Yrotation Xrotation
					JOINT LeftArm
					{
						OFFSET 20.174460 7.205340 -1.867260
						CHANNELS 3 Zrotation Yrotation Xrotation
						JOINT LeftForeArm
						{
							OFFSET 29.898000 -0.000000 -0.000000
							CHANNELS 3 Zrotation Yrotation Xrotation
							JOINT LeftHand
							{
								OFFSET 20.901360 -0.000000 -0.000000
								CHANNELS 3 Zrotation Yrotation Xrotation
								JOINT LeftFingerBase
								{
									OFFSET 0.000000 0.000000 0.000000
									CHANNELS 3 Zrotation Yrotation Xrotation
									JOINT LeftHandIndex1
									{
										OFFSET 4.291560 -0.000000 -0.000000
										CHANNELS 3 Zrotation Yrotation Xrotation
										End Site
										{
											OFFSET 0.000000 0.000000 0.000000
										}
									}
								}
								JOINT LThumb
								{
									OFFSET 0.000000 0.000000 0.000000
									CHANNELS 3 Zrotation Yrotation Xrotation
									End Site
									{
										OFFSET 0.000000 0.000000 0.000000
									}
								}
							}
						}
					}
				}
				JOINT RightShoulder
				{
					OFFSET 0.000000 0.000000 0.000000
					CHANNELS 3 Zrotation Yrotation Xrotation
					JOINT RightArm
					{
						OFFSET -18.819600 8.244300 -2.427900
						CHANNELS 3 Zrotation Yrotation Xrotation
						JOINT RightForeArm
						{
							OFFSET -31.451400 -0.000000 -0.000000
							CHANNELS 3 Zrotation Yrotation Xrotation
							JOINT RightHand
							{
								OFFSET -20.665020 -0.000000 -0.000000
								CHANNELS 3 Zrotation Yrotation Xrotation
								JOINT RightFingerBase
								{
									OFFSET 0.000000 0.000000 0.000000
									CHANNELS 3 Zrotation Yrotation Xrotation
									JOINT RightHandIndex1
									{
										OFFSET -3.735180 -0.000000 -0.000000
										CHANNELS 3 Zrotation Yrotation Xrotation
										End Site
										{
											OFFSET 0.000000 0.000000 0.000000
										}
									}
								}
								JOINT RThumb
								{
									OFFSET 0.000000 0.000000 0.000000
									CHANNELS 3 Zrotation Yrotation Xrotation
									End Site
									{
										OFFSET 0.000000 0.000000 0.000000
									}
								}
							}
						}
					}
				}
			}
		}
	}
}
MOTION
Frames:	12
Frame Time:	0.0333333
-5.202540 107.833998 0.442212 0.212390 12.123037 1.758635 -1.408426 1.833042 2.303251 -15.992856 -1.909901 -11.542627 0.429285 7.202776 22.014711 0.480701 -4.289423 -5.621896 0.760800 -5.570300 -15.542500 -0.501487 -1.721753 0.727809 25.495955 -3.035448 -6.582865 -1.166348 -6.609464 20.365528 1.312560 -9.690683 -8.840265 -0.002500 -0.322700 0.886700 2.450062 0.389010 8.669316 2.304770 0.904658 2.334872 -0.596121 0.426921 -5.529917 -12.119371 -4.807867 -20.772710 5.529884 -3.772872 20.263158 4.058500 -2.329000 14.056200 -6.055977 -0.663254 -1.604973 -86.475522 2.173823 26.735703 19.556496 -27.059910 -5.543527 -0.731898 -1.890303 6.224890 17.730559 20.946066 7.329100 -7.125000 0.000000 0.000000 -11.291000 53.640700 -2.423000 5.077310 1.166362 -0.979431 82.509633 -1.536232 14.335163 -15.094086 22.024342 -2.917074 0.240874 -0.136729 9.904161 -13.752242 7.330904 -1.845700 7.125000 0.000000 0.000000 9.323200 -22.367100 5.140500 
-5.272674 108.008748 0.401796 0.293963 14.379952 1.793472 -1.355081 1.748422 2.204234 -16.380000 0.594108 -13.904315 0.675422 7.907015 23.964766 0.090618 0.433017 -6.881223 0.395100 -4.035700 -11.177200 -0.509744 -1.718212 0.726171 25.621351 -3.918407 -6.270331 -1.000680 -6.202477 19.174589 1.581804 -11.086667 -8.901323 -0.032200 -1.158500 3.184900 2.451377 0.458039 8.876794 2.340729 0.995873 2.396477 -0.545631 0.486701 -5.542527 -11.871540 -4.309929 -20.784914 5.069511 -3.103713 20.439854 3.949700 -2.088900 14.033900 -5.989135 -0.709562 -1.605258 -86.512535 2.098060 27.262529 20.375421 -28.091131 -6.026074 -0.639288 -1.977599 5.701958 16.930540 22.204455 7.333000 -7.125000 0.000000 0.000000 -12.779300 54.809500 -3.117000 5.064397 1.131206 -0.991545 82.089323 -1.848365 14.419160 -15.066384 21.980224 -2.901948 0.253503 -0.144268 9.408389 -14.282171 7.610417 -1.993900 7.125000 0.000000 0.000000 8.917300 -22.054800 4.975400 
-5.297046 108.145452 0.437460 0.220368 16.690535 1.710876 -1.299406 1.697136 2.127613 -16.586344 3.101718 -15.986968 0.898219 8.477780 25.545882 -0.325703 4.414547 -8.203616 0.170600 -2.661000 -7.336300 -0.526167 -1.721139 0.717089 25.923980 -4.512124 -5.491201 -0.812051 -5.734808 17.805245 1.990585 -13.170060 -9.117397 -0.078800 -1.811200 4.984200 2.529200 0.568946 8.960736 2.409615 1.149935 2.543441 -0.511433 0.572008 -5.374990 -11.602892 -4.004410 -20.864307 4.700777 -2.715563 20.573978 3.821900 -1.948000 14.041600 -5.958478 -0.752380 -1.596619 -86.563995 1.812759 27.580573 20.781741 -28.585330 -6.267958 -0.622509 -2.004434 5.664195 16.907984 22.697556 7.460500 -7.125000 0.000000 0.000000 -13.070100 55.317800 -3.352400 5.073427 1.103688 -0.996877 81.852477 -1.954471 13.952455 -14.783079 21.568630 -2.786590 0.250832 -0.136269 9.757743 -14.125044 7.095927 -1.838000 7.125000 0.000000 0.000000 9.055800 -22.593800 4.941800 
-5.260788 108.229854 0.550386 0.126344 18.939423 1.563884 -1.252588 1.673787 2.074602 -16.776284 5.859015 -17.927261 0.967920 8.660917 25.970909 -0.707630 7.122265 -8.023446 0.023000 -0.978200 -2.688900 -0.536414 -1.725241 0.707572 26.170055 -5.374439 -4.951726 -0.676241 -5.371677 16.758092 2.260729 -14.508760 -9.314842 -0.098400 -2.022700 5.568300 2.602521 0.627347 9.073640 2.377365 1.241219 2.567845 -0.586048 0.617297 -5.391122 -11.855713 -4.139276 -20.601982 4.988260 -2.876097 20.627275 3.963300 -2.004900 14.036800 -5.932536 -0.718951 -1.601350 -86.251294 2.115738 27.588609 21.135920 -29.038228 -6.488795 -0.610558 -1.981411 5.724124 16.974205 22.466054 7.414100 -7.125000 0.000000 0.000000 -12.891600 55.076900 -3.229500 5.060129 1.123803 -0.984278 81.884254 -2.130780 13.334721 -14.513860 21.183923 -2.679083 0.250936 -0.159315 10.306153 -14.361955 7.742750 -2.042600 7.125000 0.000000 0.000000 8.852700 -21.905200 4.969100 
-5.155584 108.319008 0.688878 0.538233 21.517117 1.756534 -1.276822 1.638889 2.043496 -17.356198 7.387825 -19.031065 0.803583 8.417377 25.141884 -0.948372 8.874530 -8.551533 0.014600 0.780400 2.144700 -0.524227 -1.737151 0.695547 25.875226 -6.661893 -4.866058 -0.576034 -5.107779 15.980118 2.497489 -15.676255 -9.601605 -0.172500 -2.675700 7.377200 2.097350 0.637160 8.945236 2.320108 1.178897 2.584655 -0.352293 0.605745 -5.295893 -11.726124 -3.906157 -20.647173 4.736745 -2.556853 20.840144 3.898600 -1.895300 14.088400 -5.918711 -0.732530 -1.600481 -86.052412 2.341479 27.669633 21.194432 -29.129046 -6.525427 -0.600702 -2.011939 4.928841 17.141346 22.824572 7.604200 -7.125000 0.000000 0.000000 -12.889400 55.491900 -3.359800 5.063160 1.089685 -0.993065 81.756274 -2.258878 13.203863 -14.432994 21.063768 -2.645257 0.257497 -0.165793 10.236782 -14.677685 7.922685 -2.138700 7.125000 0.000000 0.000000 8.612300 -21.702700 4.871200 
-4.963008 108.381420 0.911766 0.223789 24.105956 1.695904 -1.287876 1.635709 2.027573 -17.095381 8.361174 -19.816342 0.558566 7.997244 23.759787 -1.239784 10.620543 -8.412383 0.077900 1.800900 4.955800 -0.527234 -1.746191 0.679852 26.363468 -7.456014 -4.374322 -0.436724 -4.734187 14.895269 2.898710 -17.588890 -10.013527 -0.157100 -2.553500 7.038100 2.392066 0.644001 8.856931 2.292021 1.219227 2.475074 -0.570324 0.622682 -5.376187 -11.402217 -3.805349 -20.530279 4.487240 -2.526411 21.149392 3.754700 -1.888800 14.175600 -5.939401 -0.768241 -1.582035 -85.735420 2.105779 27.042016 20.630628 -28.446895 -6.198016 -0.670503 -1.812662 5.967172 17.732154 19.748501 6.927300 -7.125000 0.000000 0.000000 -10.819100 52.343200 -1.974400 5.071089 1.075896 -1.008426 81.908129 -2.566532 12.892652 -14.542699 21.222149 -2.686445 0.262117 -0.163029 9.884593 -14.845835 7.864601 -2.148300 7.125000 0.000000 0.000000 8.490300 -21.756700 4.790100 
-4.645020 108.465222 1.014000 0.261350 26.829984 1.974634 -1.341042 1.612483 1.997237 -17.093019 7.964252 -20.036876 0.186417 7.375604 21.776227 -1.812417 14.036298 -8.705712 0.259700 3.278400 9.054800 -0.521532 -1.754777 0.669751 26.415186 -8.206471 -4.290873 -0.318923 -4.413123 13.948864 3.318355 -19.505781 -10.333950 -0.170100 -2.657200 7.325800 2.403468 0.545756 8.677698 2.293270 1.078709 2.355615 -0.563094 0.558695 -5.435845 -11.279111 -3.676430 -20.356424 4.135019 -2.353556 20.943896 3.616500 -1.846500 14.023900 -5.963311 -0.787036 -1.584083 -85.620194 2.218787 26.569644 20.174763 -27.892378 -5.881895 -0.712688 -2.053275 5.453819 17.924905 23.871312 8.326400 -7.125000 0.000000 0.000000 -12.538700 56.759000 -3.653400 5.078156 1.051118 -1.017545 81.742047 -2.493097 12.767563 -14.556767 21.244427 -2.691197 0.260983 -0.163002 9.866939 -14.805992 7.864387 -2.142200 7.125000 0.000000 0.000000 8.519900 -21.758300 4.806900 
-4.164768 108.567456 1.230948 0.092793 29.181364 1.906686 -1.392287 1.644342 1.998997 -16.692974 6.887221 -19.325789 -0.204483 6.642711 19.519020 -2.662524 18.611106 -8.800519 0.665100 5.215600 14.524500 -0.521377 -1.771452 0.644089 26.553154 -9.081092 -3.683073 -0.182554 -3.982676 12.702776 3.698125 -21.150878 -10.369255 -0.171300 -2.666100 7.350600 2.585392 0.577179 8.386257 2.313731 1.131815 2.418621 -0.661100 0.580031 -5.175033 -11.461771 -3.746393 -20.745110 4.247217 -2.343857 21.244413 3.706000 -1.851400 14.243600 -6.004118 -0.778904 -1.579439 -85.618316 2.118326 25.470841 19.623018 -27.202007 -5.540017 -0.833130 -2.022137 6.544651 18.990595 23.866355 8.871900 -7.125000 0.000000 0.000000 -11.322500 56.984100 -3.354200 5.085378 1.049450 -1.013435 81.559269 -2.307424 13.149107 -14.606237 21.307781 -2.706800 0.282391 -0.160126 9.385441 -15.612727 7.773033 -2.238400 7.125000 0.000000 0.000000 7.924600 -21.820700 4.453000 
-3.611406 108.567456 1.398558 -0.175137 31.454683 1.785942 -1.431448 1.700275 2.004095 -15.959853 4.782449 -17.977742 -0.538063 5.899965 17.282304 -3.545476 22.910628 -7.455389 1.058200 6.540700 18.361500 -0.522974 -1.795594 0.630212 26.734542 -9.816198 -3.276079 -0.092913 -3.723459 11.952142 4.044530 -22.649912 -10.909911 -0.169400 -2.651800 7.310900 2.853493 0.701368 8.262170 2.292220 1.324005 2.327698 -0.882128 0.667603 -5.235661 -11.388531 -3.773781 -20.407525 4.161212 -2.432742 21.153706 3.644000 -1.889700 14.136500 -6.022342 -0.770452 -1.577948 -85.383311 2.523132 25.205874 19.154740 -26.622756 -5.276654 -0.868304 -1.976847 6.499235 19.319373 23.129339 8.800400 -7.125000 0.000000 0.000000 -10.552600 56.274900 -2.940900 5.083400 1.031548 -1.020015 81.539655 -2.380213 12.913404 -14.844006 21.662272 -2.801940 0.276112 -0.154135 9.176497 -15.325290 7.687902 -2.170300 7.125000 0.000000 0.000000 8.141200 -21.924600 4.557700 
-2.938578 108.456306 1.604208 -0.431106 33.581763 1.459296 -1.466160 1.777954 2.055845 -15.428184 3.109538 -16.225982 -0.747181 5.217293 15.368691 -3.580292 23.285731 -4.946150 0.841700 5.852000 16.355600 -0.517320 -1.819133 0.616708 26.809702 -10.397963 -3.511690 -0.169633 -4.119149 13.062283 4.205715 -23.487866 -12.553264 -0.208700 -2.941600 8.116300 2.879689 0.838861 8.110995 2.381667 1.505161 2.374178 -0.810703 0.753335 -5.110659 -11.388884 -3.727781 -20.480791 4.137706 -2.346598 21.300692 3.652100 -1.858100 14.202500 -6.038744 -0.768408 -1.573961 -85.345983 2.751888 25.061857 18.754202 -26.112198 -5.056673 -0.851644 -1.968876 6.113744 18.958477 22.729882 8.498700 -7.125000 0.000000 0.000000 -10.738400 55.781400 -2.864500 5.088468 1.006026 -1.021228 81.123225 -2.219998 12.650819 -15.070684 22.002596 -2.888692 0.285734 -0.175242 10.170745 -16.079466 8.298366 -2.464100 7.125000 0.000000 0.000000 7.568200 -21.247800 4.348400 
-2.165298 108.244116 1.739730 -0.407311 35.469798 1.367773 -1.506768 1.802283 2.105732 -15.773886 2.539197 -15.151847 -0.819257 4.932250 14.681473 -3.178192 21.405123 -4.794621 0.516700 4.607100 12.791300 -0.500706 -1.822847 0.607265 26.521931 -10.610834 -3.990581 -0.307666 -4.702961 14.717608 4.296003 -24.135509 -14.522119 -0.327300 -3.677300 10.170500 2.735081 1.075902 7.998871 2.364383 1.798470 2.291678 -0.803082 0.897899 -5.187476 -11.492706 -3.762345 -20.366756 4.246290 -2.378801 21.598450 3.718300 -1.874900 14.313700 -6.060181 -0.746259 -1.574290 -85.193703 3.211675 24.611800 18.252726 -25.467755 -4.793202 -0.839689 -1.863716 6.847464 18.349247 21.130178 7.682700 -7.125000 0.000000 0.000000 -10.647100 53.942400 -2.361100 5.089824 0.994288 -1.020304 80.670763 -2.058185 13.077297 -15.164104 22.136700 -2.930268 0.271896 -0.146662 9.361461 -15.158215 7.461082 -2.081100 7.125000 0.000000 0.000000 8.273800 -22.172100 4.586300 
-1.310592 108.250656 1.956672 0.016844 37.380569 1.456846 -1.534602 1.810675 2.127233 -16.548699 2.401511 -14.529925 -0.860511 4.702127 14.114003 -2.866639 20.023647 -3.796803 0.373800 3.926700 10.870700 -0.494262 -1.830262 0.588426 25.950308 -10.917934 -3.677328 -0.320531 -4.816295 15.013650 4.644568 -25.585510 -15.299042 -0.377900 -3.948400 10.931500 2.525540 1.233843 7.885923 2.069559 1.978325 2.217659 -1.152006 0.993414 -5.213235 -11.064783 -3.568080 -20.346110 4.133992 -2.255008 21.859152 3.626000 -1.793500 14.393300 -6.100154 -0.753941 -1.562195 -84.854935 3.352986 23.276817 17.581031 -24.579133 -4.428103 -0.825218 -1.789493 7.690451 17.505216 20.130508 6.988900 -7.125000 0.000000 0.000000 -11.095400 52.703500 -2.124400 5.100389 0.973137 -1.027340 81.046222 -1.720604 12.248913 -15.150982 22.131842 -2.924140 0.273679 -0.155681 10.109389 -15.417191 7.597889 -2.157800 7.125000 0.000000 0.000000 8.077800 -22.016100 4.504500 
